<mxfile host="app.diagrams.net" agent="Mozilla/5.0 (Windows NT 10.0; Win64; x64) AppleWebKit/537.36 (KHTML, like Gecko) Chrome/136.0.0.0 Safari/537.36" version="26.3.0">
  <diagram name="Page-1" id="-JO6XCosqa9kram2eUzo">
    <mxGraphModel dx="1283" dy="776" grid="1" gridSize="10" guides="1" tooltips="1" connect="1" arrows="1" fold="1" page="1" pageScale="1" pageWidth="850" pageHeight="1100" background="#ffffff" math="0" shadow="0">
      <root>
        <mxCell id="0" />
        <mxCell id="1" parent="0" />
        <mxCell id="hs309aGkJSSVxd0PlDIU-5" value="localStorage" style="swimlane;fontStyle=1;align=center;verticalAlign=top;childLayout=stackLayout;horizontal=1;startSize=26;horizontalStack=0;resizeParent=1;resizeParentMax=0;resizeLast=0;collapsible=1;marginBottom=0;whiteSpace=wrap;html=1;strokeWidth=2;fillColor=#f8cecc;strokeColor=#b85450;" vertex="1" parent="1">
          <mxGeometry x="600" y="630" width="160" height="86" as="geometry" />
        </mxCell>
        <mxCell id="hs309aGkJSSVxd0PlDIU-6" value="Found Codes" style="text;strokeColor=none;fillColor=none;align=left;verticalAlign=top;spacingLeft=4;spacingRight=4;overflow=hidden;rotatable=0;points=[[0,0.5],[1,0.5]];portConstraint=eastwest;whiteSpace=wrap;html=1;" vertex="1" parent="hs309aGkJSSVxd0PlDIU-5">
          <mxGeometry y="26" width="160" height="26" as="geometry" />
        </mxCell>
        <mxCell id="hs309aGkJSSVxd0PlDIU-7" value="" style="line;strokeWidth=1;fillColor=none;align=left;verticalAlign=middle;spacingTop=-1;spacingLeft=3;spacingRight=3;rotatable=0;labelPosition=right;points=[];portConstraint=eastwest;strokeColor=inherit;" vertex="1" parent="hs309aGkJSSVxd0PlDIU-5">
          <mxGeometry y="52" width="160" height="8" as="geometry" />
        </mxCell>
        <mxCell id="hs309aGkJSSVxd0PlDIU-8" value="Submissions" style="text;strokeColor=none;fillColor=none;align=left;verticalAlign=top;spacingLeft=4;spacingRight=4;overflow=hidden;rotatable=0;points=[[0,0.5],[1,0.5]];portConstraint=eastwest;whiteSpace=wrap;html=1;" vertex="1" parent="hs309aGkJSSVxd0PlDIU-5">
          <mxGeometry y="60" width="160" height="26" as="geometry" />
        </mxCell>
        <mxCell id="hs309aGkJSSVxd0PlDIU-12" style="edgeStyle=orthogonalEdgeStyle;rounded=0;orthogonalLoop=1;jettySize=auto;html=1;entryX=0;entryY=0.5;entryDx=0;entryDy=0;" edge="1" parent="1" source="hs309aGkJSSVxd0PlDIU-9" target="hs309aGkJSSVxd0PlDIU-11">
          <mxGeometry relative="1" as="geometry" />
        </mxCell>
        <mxCell id="hs309aGkJSSVxd0PlDIU-9" value="" style="shape=umlActor;verticalLabelPosition=bottom;verticalAlign=top;html=1;outlineConnect=0;" vertex="1" parent="1">
          <mxGeometry x="190" y="140" width="30" height="60" as="geometry" />
        </mxCell>
        <mxCell id="hs309aGkJSSVxd0PlDIU-17" style="edgeStyle=orthogonalEdgeStyle;rounded=0;orthogonalLoop=1;jettySize=auto;html=1;entryX=0;entryY=0.5;entryDx=0;entryDy=0;" edge="1" parent="1" source="hs309aGkJSSVxd0PlDIU-11" target="hs309aGkJSSVxd0PlDIU-13">
          <mxGeometry relative="1" as="geometry" />
        </mxCell>
        <mxCell id="hs309aGkJSSVxd0PlDIU-11" value="User Scans QR Code" style="verticalLabelPosition=middle;verticalAlign=middle;html=1;shape=trapezoid;perimeter=trapezoidPerimeter;whiteSpace=wrap;size=0.08333333333333333;arcSize=10;flipV=1;labelPosition=center;align=center;" vertex="1" parent="1">
          <mxGeometry x="250" y="140" width="110" height="60" as="geometry" />
        </mxCell>
        <mxCell id="hs309aGkJSSVxd0PlDIU-126" style="edgeStyle=orthogonalEdgeStyle;rounded=0;orthogonalLoop=1;jettySize=auto;html=1;entryX=0.75;entryY=0;entryDx=0;entryDy=0;exitX=0.25;exitY=1;exitDx=0;exitDy=0;strokeWidth=3;fillColor=#ffe6cc;strokeColor=#d79b00;" edge="1" parent="1" source="hs309aGkJSSVxd0PlDIU-13" target="hs309aGkJSSVxd0PlDIU-15">
          <mxGeometry relative="1" as="geometry" />
        </mxCell>
        <mxCell id="hs309aGkJSSVxd0PlDIU-13" value="&lt;font&gt;Opens Browser,&lt;/font&gt;&lt;div&gt;&lt;font&gt;navigates to&lt;/font&gt;&lt;/div&gt;&lt;div&gt;&lt;font face=&quot;Courier New&quot; style=&quot;color: light-dark(rgb(0, 0, 0), rgb(255, 217, 102));&quot;&gt;/maze-game/[code]&lt;/font&gt;&lt;/div&gt;" style="rounded=1;whiteSpace=wrap;html=1;absoluteArcSize=1;arcSize=14;strokeWidth=2;" vertex="1" parent="1">
          <mxGeometry x="400" y="140" width="160" height="60" as="geometry" />
        </mxCell>
        <mxCell id="hs309aGkJSSVxd0PlDIU-15" value="&lt;font face=&quot;Courier New&quot;&gt;/maze-game/[code]&lt;/font&gt;" style="swimlane;whiteSpace=wrap;html=1;fillColor=#ffe6cc;strokeColor=#d79b00;" vertex="1" parent="1">
          <mxGeometry x="190" y="270" width="265" height="280" as="geometry" />
        </mxCell>
        <mxCell id="hs309aGkJSSVxd0PlDIU-23" value="Name, Image, etc." style="shape=parallelogram;html=1;strokeWidth=2;perimeter=parallelogramPerimeter;whiteSpace=wrap;rounded=1;arcSize=12;size=0.08333333333333333;fillColor=#dae8fc;strokeColor=#6c8ebf;" vertex="1" parent="hs309aGkJSSVxd0PlDIU-15">
          <mxGeometry x="10" y="110" width="90" height="50" as="geometry" />
        </mxCell>
        <mxCell id="hs309aGkJSSVxd0PlDIU-49" style="edgeStyle=orthogonalEdgeStyle;rounded=0;orthogonalLoop=1;jettySize=auto;html=1;entryX=0;entryY=0.5;entryDx=0;entryDy=0;" edge="1" parent="hs309aGkJSSVxd0PlDIU-15" source="hs309aGkJSSVxd0PlDIU-27" target="hs309aGkJSSVxd0PlDIU-45">
          <mxGeometry relative="1" as="geometry">
            <Array as="points">
              <mxPoint x="135" y="50" />
              <mxPoint x="135" y="180" />
            </Array>
          </mxGeometry>
        </mxCell>
        <mxCell id="hs309aGkJSSVxd0PlDIU-27" value="" style="strokeWidth=2;html=1;shape=mxgraph.flowchart.start_2;whiteSpace=wrap;" vertex="1" parent="hs309aGkJSSVxd0PlDIU-15">
          <mxGeometry x="40" y="30" width="40" height="40" as="geometry" />
        </mxCell>
        <mxCell id="hs309aGkJSSVxd0PlDIU-46" style="edgeStyle=orthogonalEdgeStyle;rounded=0;orthogonalLoop=1;jettySize=auto;html=1;exitX=0.25;exitY=1;exitDx=0;exitDy=0;entryX=0.5;entryY=0;entryDx=0;entryDy=0;fillColor=#dae8fc;strokeColor=#6c8ebf;strokeWidth=2;" edge="1" parent="hs309aGkJSSVxd0PlDIU-15" source="hs309aGkJSSVxd0PlDIU-29" target="hs309aGkJSSVxd0PlDIU-45">
          <mxGeometry relative="1" as="geometry" />
        </mxCell>
        <mxCell id="hs309aGkJSSVxd0PlDIU-29" value="[code]" style="shape=parallelogram;html=1;strokeWidth=2;perimeter=parallelogramPerimeter;whiteSpace=wrap;rounded=1;arcSize=12;size=0.23;fillColor=#dae8fc;strokeColor=#6c8ebf;" vertex="1" parent="hs309aGkJSSVxd0PlDIU-15">
          <mxGeometry x="185" y="90" width="60" height="40" as="geometry" />
        </mxCell>
        <mxCell id="hs309aGkJSSVxd0PlDIU-39" style="edgeStyle=orthogonalEdgeStyle;rounded=0;orthogonalLoop=1;jettySize=auto;html=1;entryX=0.5;entryY=0;entryDx=0;entryDy=0;fillColor=#dae8fc;strokeColor=#6c8ebf;strokeWidth=2;exitX=0.99;exitY=0.97;exitDx=0;exitDy=0;exitPerimeter=0;" edge="1" parent="hs309aGkJSSVxd0PlDIU-15" source="hs309aGkJSSVxd0PlDIU-38" target="hs309aGkJSSVxd0PlDIU-29">
          <mxGeometry relative="1" as="geometry" />
        </mxCell>
        <mxCell id="hs309aGkJSSVxd0PlDIU-38" value="&lt;div&gt;&lt;br&gt;&lt;/div&gt;&lt;div&gt;URL&lt;/div&gt;&lt;div&gt;Param&lt;/div&gt;" style="strokeWidth=2;html=1;shape=mxgraph.flowchart.extract_or_measurement;whiteSpace=wrap;" vertex="1" parent="hs309aGkJSSVxd0PlDIU-15">
          <mxGeometry x="155" y="30" width="60" height="40" as="geometry" />
        </mxCell>
        <mxCell id="hs309aGkJSSVxd0PlDIU-40" value="Display confirmation" style="strokeWidth=2;html=1;shape=mxgraph.flowchart.display;whiteSpace=wrap;" vertex="1" parent="hs309aGkJSSVxd0PlDIU-15">
          <mxGeometry x="15" y="220" width="80" height="50" as="geometry" />
        </mxCell>
        <mxCell id="hs309aGkJSSVxd0PlDIU-41" style="edgeStyle=orthogonalEdgeStyle;rounded=0;orthogonalLoop=1;jettySize=auto;html=1;entryX=0.5;entryY=0;entryDx=0;entryDy=0;entryPerimeter=0;fillColor=#dae8fc;strokeColor=#6c8ebf;strokeWidth=2;" edge="1" parent="hs309aGkJSSVxd0PlDIU-15" source="hs309aGkJSSVxd0PlDIU-23" target="hs309aGkJSSVxd0PlDIU-40">
          <mxGeometry relative="1" as="geometry" />
        </mxCell>
        <mxCell id="hs309aGkJSSVxd0PlDIU-43" value="Wait 5 seconds" style="strokeWidth=2;html=1;shape=mxgraph.flowchart.delay;whiteSpace=wrap;" vertex="1" parent="hs309aGkJSSVxd0PlDIU-15">
          <mxGeometry x="102.5" y="225" width="60" height="40" as="geometry" />
        </mxCell>
        <mxCell id="hs309aGkJSSVxd0PlDIU-45" value="Add code to Local Storage" style="rounded=1;whiteSpace=wrap;html=1;absoluteArcSize=1;arcSize=14;strokeWidth=2;" vertex="1" parent="hs309aGkJSSVxd0PlDIU-15">
          <mxGeometry x="175" y="160" width="80" height="40" as="geometry" />
        </mxCell>
        <mxCell id="hs309aGkJSSVxd0PlDIU-50" style="edgeStyle=orthogonalEdgeStyle;rounded=0;orthogonalLoop=1;jettySize=auto;html=1;entryX=0.542;entryY=0;entryDx=0;entryDy=0;entryPerimeter=0;" edge="1" parent="hs309aGkJSSVxd0PlDIU-15" source="hs309aGkJSSVxd0PlDIU-27" target="hs309aGkJSSVxd0PlDIU-43">
          <mxGeometry relative="1" as="geometry" />
        </mxCell>
        <mxCell id="hs309aGkJSSVxd0PlDIU-51" value="Navigate to&lt;div&gt;&lt;font face=&quot;Courier New&quot; style=&quot;color: light-dark(rgb(0, 0, 0), rgb(255, 217, 102));&quot;&gt;/maze-game&lt;/font&gt;&lt;/div&gt;" style="rounded=1;whiteSpace=wrap;html=1;absoluteArcSize=1;arcSize=14;strokeWidth=2;" vertex="1" parent="hs309aGkJSSVxd0PlDIU-15">
          <mxGeometry x="180" y="215" width="75" height="50" as="geometry" />
        </mxCell>
        <mxCell id="hs309aGkJSSVxd0PlDIU-57" style="edgeStyle=orthogonalEdgeStyle;rounded=0;orthogonalLoop=1;jettySize=auto;html=1;exitX=1;exitY=0.5;exitDx=0;exitDy=0;exitPerimeter=0;entryX=0;entryY=0.6;entryDx=0;entryDy=0;entryPerimeter=0;" edge="1" parent="hs309aGkJSSVxd0PlDIU-15" source="hs309aGkJSSVxd0PlDIU-43" target="hs309aGkJSSVxd0PlDIU-51">
          <mxGeometry relative="1" as="geometry" />
        </mxCell>
        <mxCell id="hs309aGkJSSVxd0PlDIU-118" style="edgeStyle=orthogonalEdgeStyle;rounded=0;orthogonalLoop=1;jettySize=auto;html=1;entryX=0;entryY=0.5;entryDx=0;entryDy=0;fillColor=#dae8fc;strokeColor=#6c8ebf;strokeWidth=2;" edge="1" parent="1" source="hs309aGkJSSVxd0PlDIU-19" target="hs309aGkJSSVxd0PlDIU-64">
          <mxGeometry relative="1" as="geometry">
            <Array as="points">
              <mxPoint x="495" y="230" />
            </Array>
          </mxGeometry>
        </mxCell>
        <mxCell id="hs309aGkJSSVxd0PlDIU-125" style="edgeStyle=orthogonalEdgeStyle;rounded=0;orthogonalLoop=1;jettySize=auto;html=1;entryX=0;entryY=0.5;entryDx=0;entryDy=0;fillColor=#dae8fc;strokeColor=#6c8ebf;strokeWidth=2;" edge="1" parent="1" source="hs309aGkJSSVxd0PlDIU-19" target="hs309aGkJSSVxd0PlDIU-23">
          <mxGeometry relative="1" as="geometry">
            <Array as="points">
              <mxPoint x="150" y="673" />
              <mxPoint x="150" y="405" />
            </Array>
          </mxGeometry>
        </mxCell>
        <mxCell id="hs309aGkJSSVxd0PlDIU-19" value="Server&lt;div&gt;Data&lt;/div&gt;" style="shape=internalStorage;whiteSpace=wrap;html=1;dx=15;dy=15;rounded=1;arcSize=0;strokeWidth=2;fillColor=#dae8fc;strokeColor=#6c8ebf;" vertex="1" parent="1">
          <mxGeometry x="460" y="638" width="70" height="70" as="geometry" />
        </mxCell>
        <mxCell id="hs309aGkJSSVxd0PlDIU-58" value="&lt;font face=&quot;Courier New&quot;&gt;/maze-game&lt;/font&gt;" style="swimlane;whiteSpace=wrap;html=1;fillColor=#ffe6cc;strokeColor=#d79b00;" vertex="1" parent="1">
          <mxGeometry x="665" y="170" width="545" height="380" as="geometry" />
        </mxCell>
        <mxCell id="hs309aGkJSSVxd0PlDIU-64" value="Season Codes" style="shape=parallelogram;html=1;strokeWidth=2;perimeter=parallelogramPerimeter;whiteSpace=wrap;rounded=1;arcSize=12;size=0.23;fillColor=#dae8fc;strokeColor=#6c8ebf;" vertex="1" parent="hs309aGkJSSVxd0PlDIU-58">
          <mxGeometry x="15" y="40" width="70" height="40" as="geometry" />
        </mxCell>
        <mxCell id="hs309aGkJSSVxd0PlDIU-70" value="Found Codes" style="shape=parallelogram;html=1;strokeWidth=2;perimeter=parallelogramPerimeter;whiteSpace=wrap;rounded=1;arcSize=12;size=0.23;fillColor=#dae8fc;strokeColor=#6c8ebf;" vertex="1" parent="hs309aGkJSSVxd0PlDIU-58">
          <mxGeometry x="15" y="105" width="70" height="40" as="geometry" />
        </mxCell>
        <mxCell id="hs309aGkJSSVxd0PlDIU-75" style="edgeStyle=orthogonalEdgeStyle;rounded=0;orthogonalLoop=1;jettySize=auto;html=1;entryX=0;entryY=0.5;entryDx=0;entryDy=0;fillColor=#dae8fc;strokeColor=#6c8ebf;strokeWidth=2;" edge="1" parent="hs309aGkJSSVxd0PlDIU-58" source="hs309aGkJSSVxd0PlDIU-71" target="hs309aGkJSSVxd0PlDIU-74">
          <mxGeometry relative="1" as="geometry" />
        </mxCell>
        <mxCell id="hs309aGkJSSVxd0PlDIU-71" value="Compare" style="verticalLabelPosition=bottom;verticalAlign=top;html=1;shape=mxgraph.flowchart.sort;fillColor=#dae8fc;strokeColor=#6c8ebf;" vertex="1" parent="hs309aGkJSSVxd0PlDIU-58">
          <mxGeometry x="115" y="100" width="50" height="50" as="geometry" />
        </mxCell>
        <mxCell id="hs309aGkJSSVxd0PlDIU-72" style="edgeStyle=orthogonalEdgeStyle;rounded=0;orthogonalLoop=1;jettySize=auto;html=1;entryX=0.5;entryY=0;entryDx=0;entryDy=0;entryPerimeter=0;fillColor=#dae8fc;strokeColor=#6c8ebf;strokeWidth=2;" edge="1" parent="hs309aGkJSSVxd0PlDIU-58" source="hs309aGkJSSVxd0PlDIU-64" target="hs309aGkJSSVxd0PlDIU-71">
          <mxGeometry relative="1" as="geometry" />
        </mxCell>
        <mxCell id="hs309aGkJSSVxd0PlDIU-73" style="edgeStyle=orthogonalEdgeStyle;rounded=0;orthogonalLoop=1;jettySize=auto;html=1;entryX=0;entryY=0.5;entryDx=0;entryDy=0;entryPerimeter=0;fillColor=#dae8fc;strokeColor=#6c8ebf;strokeWidth=2;" edge="1" parent="hs309aGkJSSVxd0PlDIU-58" source="hs309aGkJSSVxd0PlDIU-70" target="hs309aGkJSSVxd0PlDIU-71">
          <mxGeometry relative="1" as="geometry" />
        </mxCell>
        <mxCell id="hs309aGkJSSVxd0PlDIU-74" value="&amp;nbsp;Found codes from this season" style="shape=parallelogram;html=1;strokeWidth=2;perimeter=parallelogramPerimeter;whiteSpace=wrap;rounded=1;arcSize=12;size=0.07500000000000001;fillColor=#dae8fc;strokeColor=#6c8ebf;" vertex="1" parent="hs309aGkJSSVxd0PlDIU-58">
          <mxGeometry x="200" y="105" width="100" height="40" as="geometry" />
        </mxCell>
        <mxCell id="hs309aGkJSSVxd0PlDIU-85" value="Display a table of&lt;div&gt;&amp;nbsp;found codes&#39; names and images&lt;/div&gt;" style="strokeWidth=2;html=1;shape=mxgraph.flowchart.display;whiteSpace=wrap;" vertex="1" parent="hs309aGkJSSVxd0PlDIU-58">
          <mxGeometry x="335" y="95" width="140" height="60" as="geometry" />
        </mxCell>
        <mxCell id="hs309aGkJSSVxd0PlDIU-86" style="edgeStyle=orthogonalEdgeStyle;rounded=0;orthogonalLoop=1;jettySize=auto;html=1;entryX=0;entryY=0.5;entryDx=0;entryDy=0;entryPerimeter=0;fillColor=#dae8fc;strokeColor=#6c8ebf;strokeWidth=2;" edge="1" parent="hs309aGkJSSVxd0PlDIU-58" source="hs309aGkJSSVxd0PlDIU-74" target="hs309aGkJSSVxd0PlDIU-85">
          <mxGeometry relative="1" as="geometry" />
        </mxCell>
        <mxCell id="hs309aGkJSSVxd0PlDIU-87" value="No submissions&lt;div&gt;for current year&lt;/div&gt;" style="verticalLabelPosition=bottom;verticalAlign=top;html=1;shape=mxgraph.flowchart.or;" vertex="1" parent="hs309aGkJSSVxd0PlDIU-58">
          <mxGeometry x="200" y="255" width="30" height="30" as="geometry" />
        </mxCell>
        <mxCell id="hs309aGkJSSVxd0PlDIU-107" style="edgeStyle=orthogonalEdgeStyle;rounded=0;orthogonalLoop=1;jettySize=auto;html=1;entryX=0.5;entryY=0;entryDx=0;entryDy=0;" edge="1" parent="hs309aGkJSSVxd0PlDIU-58" source="hs309aGkJSSVxd0PlDIU-89" target="hs309aGkJSSVxd0PlDIU-106">
          <mxGeometry relative="1" as="geometry" />
        </mxCell>
        <mxCell id="hs309aGkJSSVxd0PlDIU-89" value="&lt;div&gt;&lt;br&gt;&lt;/div&gt;&lt;div&gt;Display&lt;/div&gt;Submission Form" style="html=1;strokeWidth=2;shape=manualInput;whiteSpace=wrap;rounded=1;size=26;arcSize=11;" vertex="1" parent="hs309aGkJSSVxd0PlDIU-58">
          <mxGeometry x="355" y="190" width="100" height="60" as="geometry" />
        </mxCell>
        <mxCell id="hs309aGkJSSVxd0PlDIU-91" value="All Match?" style="verticalLabelPosition=bottom;verticalAlign=top;html=1;shape=mxgraph.flowchart.or;" vertex="1" parent="hs309aGkJSSVxd0PlDIU-58">
          <mxGeometry x="200" y="175" width="30" height="30" as="geometry" />
        </mxCell>
        <mxCell id="hs309aGkJSSVxd0PlDIU-92" value="Submissions" style="shape=parallelogram;html=1;strokeWidth=2;perimeter=parallelogramPerimeter;whiteSpace=wrap;rounded=1;arcSize=12;size=0.23;fillColor=#dae8fc;strokeColor=#6c8ebf;" vertex="1" parent="hs309aGkJSSVxd0PlDIU-58">
          <mxGeometry x="15" y="250" width="90" height="40" as="geometry" />
        </mxCell>
        <mxCell id="hs309aGkJSSVxd0PlDIU-98" style="edgeStyle=orthogonalEdgeStyle;rounded=0;orthogonalLoop=1;jettySize=auto;html=1;entryX=0;entryY=0.75;entryDx=0;entryDy=0;" edge="1" parent="hs309aGkJSSVxd0PlDIU-58" source="hs309aGkJSSVxd0PlDIU-95" target="hs309aGkJSSVxd0PlDIU-89">
          <mxGeometry relative="1" as="geometry" />
        </mxCell>
        <mxCell id="hs309aGkJSSVxd0PlDIU-95" value="" style="strokeWidth=2;html=1;shape=mxgraph.flowchart.delay;whiteSpace=wrap;" vertex="1" parent="hs309aGkJSSVxd0PlDIU-58">
          <mxGeometry x="285" y="215" width="40" height="40" as="geometry" />
        </mxCell>
        <mxCell id="hs309aGkJSSVxd0PlDIU-97" style="edgeStyle=orthogonalEdgeStyle;rounded=0;orthogonalLoop=1;jettySize=auto;html=1;entryX=-0.031;entryY=0.743;entryDx=0;entryDy=0;entryPerimeter=0;" edge="1" parent="hs309aGkJSSVxd0PlDIU-58" source="hs309aGkJSSVxd0PlDIU-87" target="hs309aGkJSSVxd0PlDIU-95">
          <mxGeometry relative="1" as="geometry" />
        </mxCell>
        <mxCell id="hs309aGkJSSVxd0PlDIU-101" value="" style="endArrow=classic;html=1;rounded=0;exitX=0.754;exitY=0.769;exitDx=0;exitDy=0;exitPerimeter=0;entryX=0.086;entryY=0.1;entryDx=0;entryDy=0;entryPerimeter=0;" edge="1" parent="hs309aGkJSSVxd0PlDIU-58" source="hs309aGkJSSVxd0PlDIU-71" target="hs309aGkJSSVxd0PlDIU-91">
          <mxGeometry width="50" height="50" relative="1" as="geometry">
            <mxPoint x="185" y="150" as="sourcePoint" />
            <mxPoint x="235" y="100" as="targetPoint" />
          </mxGeometry>
        </mxCell>
        <mxCell id="hs309aGkJSSVxd0PlDIU-102" style="edgeStyle=orthogonalEdgeStyle;rounded=0;orthogonalLoop=1;jettySize=auto;html=1;entryX=0;entryY=0.5;entryDx=0;entryDy=0;entryPerimeter=0;" edge="1" parent="hs309aGkJSSVxd0PlDIU-58" source="hs309aGkJSSVxd0PlDIU-92" target="hs309aGkJSSVxd0PlDIU-87">
          <mxGeometry relative="1" as="geometry" />
        </mxCell>
        <mxCell id="hs309aGkJSSVxd0PlDIU-103" style="edgeStyle=orthogonalEdgeStyle;rounded=0;orthogonalLoop=1;jettySize=auto;html=1;entryX=0.012;entryY=0.326;entryDx=0;entryDy=0;entryPerimeter=0;" edge="1" parent="hs309aGkJSSVxd0PlDIU-58" source="hs309aGkJSSVxd0PlDIU-91" target="hs309aGkJSSVxd0PlDIU-95">
          <mxGeometry relative="1" as="geometry" />
        </mxCell>
        <mxCell id="hs309aGkJSSVxd0PlDIU-109" style="edgeStyle=orthogonalEdgeStyle;rounded=0;orthogonalLoop=1;jettySize=auto;html=1;entryX=1;entryY=0.5;entryDx=0;entryDy=0;fillColor=#dae8fc;strokeColor=#6c8ebf;strokeWidth=2;" edge="1" parent="hs309aGkJSSVxd0PlDIU-58" source="hs309aGkJSSVxd0PlDIU-106" target="hs309aGkJSSVxd0PlDIU-108">
          <mxGeometry relative="1" as="geometry" />
        </mxCell>
        <mxCell id="hs309aGkJSSVxd0PlDIU-117" style="edgeStyle=orthogonalEdgeStyle;rounded=0;orthogonalLoop=1;jettySize=auto;html=1;entryX=0.5;entryY=0;entryDx=0;entryDy=0;" edge="1" parent="hs309aGkJSSVxd0PlDIU-58" source="hs309aGkJSSVxd0PlDIU-106" target="hs309aGkJSSVxd0PlDIU-115">
          <mxGeometry relative="1" as="geometry" />
        </mxCell>
        <mxCell id="hs309aGkJSSVxd0PlDIU-106" value="Submit" style="verticalLabelPosition=middle;verticalAlign=middle;html=1;shape=trapezoid;perimeter=trapezoidPerimeter;whiteSpace=wrap;size=0.23;arcSize=10;flipV=1;labelPosition=center;align=center;" vertex="1" parent="hs309aGkJSSVxd0PlDIU-58">
          <mxGeometry x="370" y="270" width="70" height="40" as="geometry" />
        </mxCell>
        <mxCell id="hs309aGkJSSVxd0PlDIU-114" style="edgeStyle=orthogonalEdgeStyle;rounded=0;orthogonalLoop=1;jettySize=auto;html=1;entryX=0.5;entryY=0;entryDx=0;entryDy=0;fillColor=#dae8fc;strokeColor=#6c8ebf;strokeWidth=2;" edge="1" parent="hs309aGkJSSVxd0PlDIU-58" source="hs309aGkJSSVxd0PlDIU-108" target="hs309aGkJSSVxd0PlDIU-113">
          <mxGeometry relative="1" as="geometry" />
        </mxCell>
        <mxCell id="hs309aGkJSSVxd0PlDIU-108" value="Submission" style="shape=parallelogram;html=1;strokeWidth=2;perimeter=parallelogramPerimeter;whiteSpace=wrap;rounded=1;arcSize=12;size=0.08333333333333333;fillColor=#dae8fc;strokeColor=#6c8ebf;" vertex="1" parent="hs309aGkJSSVxd0PlDIU-58">
          <mxGeometry x="275" y="270" width="80" height="40" as="geometry" />
        </mxCell>
        <mxCell id="hs309aGkJSSVxd0PlDIU-113" value="Email API" style="shape=process;whiteSpace=wrap;html=1;backgroundOutline=1;fillColor=#d5e8d4;strokeColor=#82b366;strokeWidth=2;" vertex="1" parent="hs309aGkJSSVxd0PlDIU-58">
          <mxGeometry x="285" y="340" width="60" height="30" as="geometry" />
        </mxCell>
        <mxCell id="hs309aGkJSSVxd0PlDIU-115" value="Add current year to Local Storage" style="rounded=1;whiteSpace=wrap;html=1;absoluteArcSize=1;arcSize=14;strokeWidth=2;" vertex="1" parent="hs309aGkJSSVxd0PlDIU-58">
          <mxGeometry x="455" y="310" width="80" height="60" as="geometry" />
        </mxCell>
        <mxCell id="hs309aGkJSSVxd0PlDIU-119" style="edgeStyle=orthogonalEdgeStyle;rounded=0;orthogonalLoop=1;jettySize=auto;html=1;entryX=0;entryY=0.5;entryDx=0;entryDy=0;fillColor=#f8cecc;strokeColor=#b85450;strokeWidth=2;" edge="1" parent="1" source="hs309aGkJSSVxd0PlDIU-45" target="hs309aGkJSSVxd0PlDIU-6">
          <mxGeometry relative="1" as="geometry">
            <Array as="points">
              <mxPoint x="560" y="450" />
              <mxPoint x="560" y="669" />
            </Array>
          </mxGeometry>
        </mxCell>
        <mxCell id="hs309aGkJSSVxd0PlDIU-120" style="edgeStyle=orthogonalEdgeStyle;rounded=0;orthogonalLoop=1;jettySize=auto;html=1;entryX=0;entryY=0.5;entryDx=0;entryDy=0;fillColor=#f8cecc;strokeColor=#b85450;strokeWidth=2;" edge="1" parent="1" source="hs309aGkJSSVxd0PlDIU-6" target="hs309aGkJSSVxd0PlDIU-70">
          <mxGeometry relative="1" as="geometry">
            <Array as="points">
              <mxPoint x="780" y="669" />
              <mxPoint x="780" y="610" />
              <mxPoint x="620" y="610" />
              <mxPoint x="620" y="295" />
            </Array>
          </mxGeometry>
        </mxCell>
        <mxCell id="hs309aGkJSSVxd0PlDIU-121" style="edgeStyle=orthogonalEdgeStyle;rounded=0;orthogonalLoop=1;jettySize=auto;html=1;entryX=0;entryY=0.5;entryDx=0;entryDy=0;fillColor=#f8cecc;strokeColor=#b85450;strokeWidth=2;" edge="1" parent="1" source="hs309aGkJSSVxd0PlDIU-8" target="hs309aGkJSSVxd0PlDIU-92">
          <mxGeometry relative="1" as="geometry">
            <Array as="points">
              <mxPoint x="800" y="703" />
              <mxPoint x="800" y="575" />
              <mxPoint x="640" y="575" />
              <mxPoint x="640" y="440" />
            </Array>
          </mxGeometry>
        </mxCell>
        <mxCell id="hs309aGkJSSVxd0PlDIU-124" style="edgeStyle=orthogonalEdgeStyle;rounded=0;orthogonalLoop=1;jettySize=auto;html=1;entryX=0;entryY=0.5;entryDx=0;entryDy=0;fillColor=#f8cecc;strokeColor=#b85450;strokeWidth=2;" edge="1" parent="1" source="hs309aGkJSSVxd0PlDIU-115" target="hs309aGkJSSVxd0PlDIU-8">
          <mxGeometry relative="1" as="geometry">
            <Array as="points">
              <mxPoint x="1160" y="750" />
              <mxPoint x="580" y="750" />
              <mxPoint x="580" y="703" />
            </Array>
          </mxGeometry>
        </mxCell>
        <mxCell id="hs309aGkJSSVxd0PlDIU-127" style="edgeStyle=orthogonalEdgeStyle;rounded=0;orthogonalLoop=1;jettySize=auto;html=1;entryX=0;entryY=0.25;entryDx=0;entryDy=0;fillColor=#ffe6cc;strokeColor=#d79b00;strokeWidth=3;" edge="1" parent="1" source="hs309aGkJSSVxd0PlDIU-51" target="hs309aGkJSSVxd0PlDIU-58">
          <mxGeometry relative="1" as="geometry">
            <Array as="points">
              <mxPoint x="530" y="510" />
              <mxPoint x="530" y="265" />
            </Array>
          </mxGeometry>
        </mxCell>
      </root>
    </mxGraphModel>
  </diagram>
</mxfile>
